<svg width="32" height="32" viewBox="0 0 32 32" fill="none" xmlns="http://www.w3.org/2000/svg">
<g clip-path="url(#clip0_11_7)">
<g clip-path="url(#clip1_11_7)">
<circle cx="16" cy="16" r="16" fill="#B28756"/>
<path d="M9.83335 21.3333C9.76669 21.2444 9.98335 20.8944 10.4834 20.2833C10.9834 19.6722 11.5556 19.0222 12.2 18.3333C12.9334 17.5111 13.7889 16.6 14.7667 15.6C15.0334 15.2 15.4 15 15.8667 15C16.3334 15 16.7222 15.1778 17.0334 15.5333C17.3 15.8889 17.4 16.2944 17.3334 16.75C17.2667 17.2056 17.0222 17.5333 16.6 17.7333C15.3778 18.4667 14.2889 19.1111 13.3334 19.6667C12.4889 20.1333 11.7111 20.55 11 20.9167C10.2889 21.2833 9.90002 21.4222 9.83335 21.3333ZM14.3334 30.6667C14.2222 30.6667 14.1111 30.6444 14 30.6C13.8889 30.5556 13.8 30.4778 13.7334 30.3667C13.6445 30.2333 13.5556 30.05 13.4667 29.8167C13.3778 29.5833 13.3334 29.3111 13.3334 29C13.3334 28.8 13.3445 28.6167 13.3667 28.45C13.3889 28.2833 13.4222 28.1111 13.4667 27.9333C12.8667 27.8222 12.3611 27.5222 11.95 27.0333C11.5389 26.5444 11.3334 25.9778 11.3334 25.3333C11.3334 25.2444 11.3667 25.0111 11.4334 24.6333C9.78891 24.0556 8.46113 23.1333 7.45002 21.8667C6.43891 20.6 5.78891 18.9667 5.50002 16.9667C5.38891 17.0778 5.26669 17.1667 5.13335 17.2333C5.00002 17.3 4.84447 17.3333 4.66669 17.3333C4.33335 17.3333 3.91669 17.0833 3.41669 16.5833C2.91669 16.0833 2.66669 15 2.66669 13.3333C2.66669 11.8 3.11669 10.4167 4.01669 9.18333C4.91669 7.95 5.80002 7.33333 6.66669 7.33333C6.95558 7.33333 7.13891 7.46111 7.21669 7.71667C7.29447 7.97222 7.33335 8.22222 7.33335 8.46667C8.1778 7.26667 9.23891 6.27778 10.5167 5.5C11.7945 4.72222 13.2 4.24444 14.7334 4.06667C14.8667 3.42222 15.1889 2.91667 15.7 2.55C16.2111 2.18333 16.7556 2 17.3334 2V3.33333C17.4222 3.2 17.5334 3.08889 17.6667 3C17.7778 2.91111 17.9167 2.83333 18.0834 2.76667C18.25 2.7 18.4445 2.66667 18.6667 2.66667C18.8889 2.66667 19.0834 2.7 19.25 2.76667C19.4167 2.83333 19.5556 2.91111 19.6667 3C19.8 3.08889 19.9111 3.2 20 3.33333C19.6667 3.33333 19.3889 3.43333 19.1667 3.63333C18.9445 3.83333 18.8 4.07778 18.7334 4.36667C19.9334 4.67778 21.0445 5.18889 22.0667 5.9C23.0889 6.61111 23.9556 7.46667 24.6667 8.46667C24.6667 8.22222 24.7056 7.97222 24.7834 7.71667C24.8611 7.46111 25.0445 7.33333 25.3334 7.33333C26.2 7.33333 27.0834 7.95 27.9834 9.18333C28.8834 10.4167 29.3334 11.8 29.3334 13.3333C29.3334 15 29.0834 16.0833 28.5834 16.5833C28.0834 17.0833 27.6667 17.3333 27.3334 17.3333C27.1778 17.3333 27.0278 17.3056 26.8834 17.25C26.7389 17.1944 26.6111 17.1111 26.5 17C26.1889 19.2222 25.4278 20.9944 24.2167 22.3167C23.0056 23.6389 21.4 24.5222 19.4 24.9667C19.4667 25.2778 19.6167 25.5278 19.85 25.7167C20.0834 25.9056 20.3556 26 20.6667 26H21.4334C21.5889 26 21.7222 26.0444 21.8334 26.1333C21.9445 26.2222 22.0222 26.3333 22.0667 26.4667C22.1778 26.8222 22.3722 27.1556 22.65 27.4667C22.9278 27.7778 23.1889 28.0333 23.4334 28.2333C23.6111 28.3889 23.6945 28.5722 23.6834 28.7833C23.6722 28.9944 23.5778 29.1556 23.4 29.2667C23.1556 29.4444 22.8445 29.6 22.4667 29.7333C22.0889 29.8667 21.6 29.9556 21 30C20.8889 30 20.7778 29.9778 20.6667 29.9333C20.5556 29.8889 20.4667 29.8111 20.4 29.7C20.3111 29.5667 20.2222 29.3833 20.1334 29.15C20.0445 28.9167 20 28.6444 20 28.3333C20 28.1333 20.0111 27.95 20.0334 27.7833C20.0556 27.6167 20.0889 27.4444 20.1334 27.2667C19.6 27.1556 19.15 26.9111 18.7834 26.5333C18.4167 26.1556 18.1778 25.7111 18.0667 25.2C17.7334 25.2444 17.4 25.2778 17.0667 25.3C16.7334 25.3222 16.3778 25.3333 16 25.3333C15.4222 25.3333 14.8611 25.3056 14.3167 25.25C13.7722 25.1944 13.2445 25.1111 12.7334 25L12.6667 25.3333C12.6667 25.7111 12.7945 26.0278 13.05 26.2833C13.3056 26.5389 13.6222 26.6667 14 26.6667H14.7667C14.9222 26.6667 15.0556 26.7111 15.1667 26.8C15.2778 26.8889 15.3556 27 15.4 27.1333C15.5111 27.4889 15.7056 27.8222 15.9834 28.1333C16.2611 28.4444 16.5222 28.7 16.7667 28.9C16.9445 29.0556 17.0278 29.2389 17.0167 29.45C17.0056 29.6611 16.9111 29.8222 16.7334 29.9333C16.4889 30.1111 16.1778 30.2667 15.8 30.4C15.4222 30.5333 14.9334 30.6222 14.3334 30.6667ZM25 17.6333C25.1111 17.1889 25.1945 16.7222 25.25 16.2333C25.3056 15.7444 25.3334 15.2222 25.3334 14.6667C25.3334 12.0889 24.4222 9.88889 22.6 8.06667C20.7778 6.24444 18.5778 5.33333 16 5.33333C13.4222 5.33333 11.2222 6.24444 9.40002 8.06667C7.5778 9.88889 6.66669 12.0889 6.66669 14.6667C6.66669 15.2 6.69447 15.7111 6.75002 16.2C6.80558 16.6889 6.88891 17.1556 7.00002 17.6C7.11113 17.1556 7.26113 16.7167 7.45002 16.2833C7.63891 15.85 7.85558 15.4444 8.10002 15.0667C7.96669 14.7556 7.86113 14.4278 7.78335 14.0833C7.70558 13.7389 7.66669 13.3778 7.66669 13C7.66669 11.6 8.15002 10.4167 9.11669 9.45C10.0834 8.48333 11.2667 8 12.6667 8C13.3111 8 13.9167 8.11667 14.4834 8.35C15.05 8.58333 15.5556 8.9 16 9.3C16.4445 8.9 16.95 8.58333 17.5167 8.35C18.0834 8.11667 18.6889 8 19.3334 8C20.7334 8 21.9167 8.48333 22.8834 9.45C23.85 10.4167 24.3334 11.6 24.3334 13C24.3334 13.3778 24.2945 13.7389 24.2167 14.0833C24.1389 14.4278 24.0222 14.7556 23.8667 15.0667C24.1111 15.4444 24.3334 15.85 24.5334 16.2833C24.7334 16.7167 24.8889 17.1667 25 17.6333ZM16 24C17.9334 24 19.5611 23.7 20.8834 23.1C22.2056 22.5 23.2334 21.6 23.9667 20.4C23.9667 20.3333 23.9722 20.2667 23.9834 20.2C23.9945 20.1333 24 20.0667 24 20C24 19.3333 23.9222 18.6889 23.7667 18.0667C23.6111 17.4444 23.3778 16.8556 23.0667 16.3C22.6 16.8111 22.05 17.2222 21.4167 17.5333C20.7834 17.8444 20.0889 18 19.3334 18C19.1556 18 18.9778 17.9889 18.8 17.9667C18.6222 17.9444 18.4445 17.9111 18.2667 17.8667C18.3778 17.7111 18.4611 17.55 18.5167 17.3833C18.5722 17.2167 18.6111 17.0444 18.6334 16.8667C18.6556 16.8222 18.6667 16.7778 18.6667 16.7333V16.6C18.7778 16.6222 18.8889 16.6389 19 16.65C19.1111 16.6611 19.2222 16.6667 19.3334 16.6667C20.3556 16.6667 21.2222 16.3111 21.9334 15.6C22.6445 14.8889 23 14.0222 23 13C23 11.9778 22.6445 11.1111 21.9334 10.4C21.2222 9.68889 20.3556 9.33333 19.3334 9.33333C18.8889 9.33333 18.4556 9.41667 18.0334 9.58333C17.6111 9.75 17.2334 9.98889 16.9 10.3L16 11.1L15.1 10.3C14.7667 9.98889 14.3889 9.75 13.9667 9.58333C13.5445 9.41667 13.1111 9.33333 12.6667 9.33333C11.6445 9.33333 10.7778 9.68889 10.0667 10.4C9.35558 11.1111 9.00002 11.9778 9.00002 13C9.00002 13.9111 9.28335 14.6944 9.85002 15.35C10.4167 16.0056 11.1222 16.4222 11.9667 16.6L10.9667 17.7C10.5667 17.5444 10.1945 17.35 9.85002 17.1167C9.50558 16.8833 9.20002 16.6111 8.93335 16.3C8.62224 16.8556 8.38891 17.4444 8.23335 18.0667C8.0778 18.6889 8.00002 19.3333 8.00002 20V20.3333C8.75558 21.5333 9.80002 22.4444 11.1334 23.0667C12.4667 23.6889 14.0889 24 16 24ZM19.3334 15.3333C18.7778 15.3333 18.3056 15.1056 17.9167 14.65C17.5278 14.1944 17.3334 13.6444 17.3334 13C17.3334 12.3556 17.5278 11.8056 17.9167 11.35C18.3056 10.8944 18.7778 10.6667 19.3334 10.6667C19.8889 10.6667 20.3611 10.8944 20.75 11.35C21.1389 11.8056 21.3334 12.3556 21.3334 13C21.3334 13.6444 21.1389 14.1944 20.75 14.65C20.3611 15.1056 19.8889 15.3333 19.3334 15.3333ZM19.8334 12.3333C19.9889 12.3333 20.1111 12.2833 20.2 12.1833C20.2889 12.0833 20.3334 11.9667 20.3334 11.8333C20.3334 11.7 20.2834 11.5833 20.1834 11.4833C20.0834 11.3833 19.9667 11.3333 19.8334 11.3333C19.6778 11.3333 19.5556 11.3833 19.4667 11.4833C19.3778 11.5833 19.3334 11.7 19.3334 11.8333C19.3334 11.9889 19.3834 12.1111 19.4834 12.2C19.5834 12.2889 19.7 12.3333 19.8334 12.3333ZM12.6667 15.3333C12.1111 15.3333 11.6389 15.1056 11.25 14.65C10.8611 14.1944 10.6667 13.6444 10.6667 13C10.6667 12.3556 10.8611 11.8056 11.25 11.35C11.6389 10.8944 12.1111 10.6667 12.6667 10.6667C13.2222 10.6667 13.6945 10.8944 14.0834 11.35C14.4722 11.8056 14.6667 12.3556 14.6667 13C14.6667 13.6444 14.4722 14.1944 14.0834 14.65C13.6945 15.1056 13.2222 15.3333 12.6667 15.3333ZM13.1667 12.3333C13.3222 12.3333 13.4445 12.2833 13.5334 12.1833C13.6222 12.0833 13.6667 11.9667 13.6667 11.8333C13.6667 11.7 13.6167 11.5833 13.5167 11.4833C13.4167 11.3833 13.3 11.3333 13.1667 11.3333C13.0111 11.3333 12.8889 11.3833 12.8 11.4833C12.7111 11.5833 12.6667 11.7 12.6667 11.8333C12.6667 11.9889 12.7167 12.1111 12.8167 12.2C12.9167 12.2889 13.0334 12.3333 13.1667 12.3333Z" fill="black"/>
</g>
</g>
<defs>
<clipPath id="clip0_11_7">
<rect width="32" height="32" fill="white"/>
</clipPath>
<clipPath id="clip1_11_7">
<rect width="32" height="32" fill="white"/>
</clipPath>
</defs>
</svg>
